# xmcd CD database file
#
# Track frame offsets:
#	150
#	13177
#	24345
#	37192
#	54527
#	68080
#	81175
#	87620
#	102415
#	112010
#	127637
#	143085
#	162350
#	175947
#	186747
#
# Disc length: 2644 seconds
#
# Revision: 1
# Processed by: cddbd v1.4PL0 Copyright (c) Steve Scherf et al.
# Submitted via: CDex 1.40Beta9
#
DISCID=d10a520f
DTITLE=La Mississippi - Classic
DYEAR=1996
DGENRE=Blues
TTITLE0=Caldonia
TTITLE1=Baby please don´t go
TTITLE2=Key to highway
TTITLE3=I´m your hoochie coochie man
TTITLE4=Good morning little schoolgirl
TTITLE5=Doña Laura
TTITLE6=Handful of keys
TTITLE7=You´ll be mine
TTITLE8=I want to be loved
TTITLE9=I´ve got my mojo working
TTITLE10=Adonde está la libertad
TTITLE11=Call it stormy morning
TTITLE12=Walking thru the park
TTITLE13=Walking by myself
TTITLE14=Café Madrid (Bonus Track)
EXTD=YEAR: 1996 ID3G: 0
EXTT0=
EXTT1=
EXTT2=
EXTT3=
EXTT4=
EXTT5=
EXTT6=
EXTT7=
EXTT8=
EXTT9=
EXTT10=
EXTT11=
EXTT12=
EXTT13=
EXTT14=
PLAYORDER=
